<svg xmlns="http://www.w3.org/2000/svg" preserveAspectRatio="xMidYMid" width="63.062" height="106.42" viewBox="0 0 31.531 53.21"><defs><style>.cls-1{fill:#fff;fill-rule:evenodd}</style></defs><path d="M15.761 53.202C6.337 53.202.006 46.793.006 37.253V15.958c0-9.54 6.331-15.95 15.755-15.95s15.756 6.41 15.756 15.95v21.295c0 9.54-6.332 15.949-15.756 15.949zm12.978-37.244c0-7.981-5.094-13.137-12.978-13.137-7.884 0-12.977 5.156-12.977 13.137v21.295c0 7.981 5.093 13.137 12.977 13.137s12.978-5.156 12.978-13.137V15.958zm-12.978 4.678c-2.106 0-3.82-1.735-3.82-3.867 0-2.133 1.714-3.868 3.82-3.868 2.107 0 3.82 1.735 3.82 3.868 0 2.132-1.713 3.867-3.82 3.867zm0-4.923a1.05 1.05 0 0 0-1.042 1.056 1.05 1.05 0 0 0 1.042 1.055 1.05 1.05 0 0 0 1.043-1.055c0-.582-.468-1.056-1.043-1.056z" class="cls-1"/></svg>