<svg xmlns="http://www.w3.org/2000/svg" xmlns:xlink="http://www.w3.org/1999/xlink" preserveAspectRatio="xMidYMid" width="63.062" height="106.42" viewBox="0 0 31.531 53.21">
  <defs>
    <style>
      .cls-1 {
        fill: #fff;
        fill-rule: evenodd;
      }
    </style>
  </defs>
  <path d="M15.761,53.202 C6.337,53.202 0.006,46.793 0.006,37.253 L0.006,15.958 C0.006,6.418 6.337,0.008 15.761,0.008 C25.185,0.008 31.517,6.418 31.517,15.958 L31.517,37.253 C31.517,46.793 25.185,53.202 15.761,53.202 ZM28.739,15.958 C28.739,7.977 23.645,2.821 15.761,2.821 C7.877,2.821 2.784,7.977 2.784,15.958 L2.784,37.253 C2.784,45.234 7.877,50.390 15.761,50.390 C23.645,50.390 28.739,45.234 28.739,37.253 L28.739,15.958 ZM15.761,20.636 C13.655,20.636 11.941,18.901 11.941,16.769 C11.941,14.636 13.655,12.901 15.761,12.901 C17.868,12.901 19.581,14.636 19.581,16.769 C19.581,18.901 17.868,20.636 15.761,20.636 ZM15.761,15.713 C15.186,15.713 14.719,16.187 14.719,16.769 C14.719,17.350 15.186,17.824 15.761,17.824 C16.336,17.824 16.804,17.350 16.804,16.769 C16.804,16.187 16.336,15.713 15.761,15.713 Z" class="cls-1"/>
</svg>
