<svg xmlns="http://www.w3.org/2000/svg" preserveAspectRatio="xMidYMid" width="65" height="59" viewBox="0 0 65 59"><defs><style>.cls-1{fill:#00aeef;fill-rule:evenodd}</style></defs><path d="M64.733 39.53c-.367.648-.981 1.005-1.733 1.005-2.31 0-6.278-3.728-7.925-5.457L55 56h4l-.106 2.203S59.427 59 59 59l-52.188-.005a.784.784 0 0 1-.776-.792c0-.435.536-2.203.964-2.203h2.884L10 53.825V35.144l-.306.044c-1.602 1.697-5.324 5.347-7.668 5.347-.754 0-1.367-.357-1.735-1.005a1.958 1.958 0 0 1-.102-1.799c.949-2.188 6.145-3.726 8.479-4.311a2.807 2.807 0 0 1-.041-.424c0-1.167.711-2.166 1.713-2.577-.667-2.37-1.94-7.677-.557-9.599.76-1.059 2.396-1.059 3.159 0 1.386 1.922.11 7.229-.558 9.599a2.782 2.782 0 0 1 1.714 2.577c0 .147-.023.284-.041.424 2.334.588 7.528 2.122 8.477 4.311a1.949 1.949 0 0 1-.101 1.799c-.364.648-.982 1.005-1.734 1.005-.148 0-.303-.015-.461-.043-2.069-.356-5.414-2.868-7.322-4.606V56H31V26.019l-.09-2.696a3.823 3.823 0 0 1-1.082-.742c-2.13 2.273-8.272 8.48-11.899 8.48-1.023 0-1.827-.462-2.326-1.341-.436-.769-.483-1.601-.135-2.399 1.453-3.365 10.202-5.799 13.31-6.564a3.85 3.85 0 0 1-.141-.986 3.878 3.878 0 0 1 2.772-3.727c-.911-3.176-3.179-12.026-1.057-14.973a2.496 2.496 0 0 1 1.214-.889c.29-.103.591-.172.897-.172.802 0 1.604.354 2.113 1.061 2.12 2.948-.145 11.797-1.057 14.973a3.878 3.878 0 0 1 2.77 3.727c0 .341-.055.668-.138.986 3.106.765 11.854 3.199 13.309 6.561.347.802.301 1.634-.135 2.403-.5.879-1.304 1.34-2.325 1.34-3.624 0-9.769-6.207-11.899-8.479a3.926 3.926 0 0 1-1.081.742L34 56h18.005l.103-20.715-.114-.097c-1.606 1.694-5.325 5.347-7.669 5.347-.752 0-1.369-.357-1.736-1.005a1.96 1.96 0 0 1-.099-1.799c.948-2.188 6.142-3.726 8.475-4.311-.016-.14-.039-.277-.039-.424 0-1.167.712-2.166 1.714-2.577-.669-2.37-1.943-7.677-.558-9.599.762-1.059 2.399-1.059 3.161 0 1.382 1.922.109 7.229-.561 9.599a2.78 2.78 0 0 1 1.717 2.577c0 .147-.024.284-.043.424 2.334.585 7.531 2.122 8.479 4.311a1.952 1.952 0 0 1-.102 1.799zM16.889 27.959c-.147.338-.125.638.062.972.218.384.51.548.978.548 2.335 0 6.75-3.913 9.586-6.761-4.419 1.234-9.781 3.286-10.626 5.241zM47 29.48c.466 0 .758-.164.978-.548.188-.334.207-.635.059-.976-.847-1.952-6.208-4.004-10.622-5.237 2.833 2.847 7.248 6.761 9.585 6.761zM1.612 38.37c-.06.138-.053.234.024.372.079.136.164.21.39.21 1.142 0 3.312-1.715 5.16-3.473-2.567.799-5.149 1.909-5.574 2.891zM11.69 21.752c-.087-.12-.173-.164-.327-.164-.157 0-.242.044-.33.164-.622.866-.276 3.701.33 6.364.604-2.663.951-5.498.327-6.364zm-.327 10.04c-.653 0-1.183.542-1.183 1.204 0 .665.53 1.206 1.183 1.206.652 0 1.18-.541 1.18-1.206 0-.662-.528-1.204-1.18-1.204zm9.723 6.95c.079-.138.086-.234.026-.372-.425-.982-3.005-2.092-5.574-2.891 1.847 1.758 4.02 3.473 5.161 3.473.224 0 .31-.073.387-.21zM33.323 2.006c-.216-.3-.481-.434-.859-.434-.38 0-.643.134-.858.434-1.24 1.722-.305 7.484.858 11.996 1.161-4.512 2.098-10.274.859-11.996zm1.413 17.765c0-1.277-1.021-2.316-2.272-2.316-1.253 0-2.273 1.039-2.273 2.316 0 1.273 1.02 2.312 2.273 2.313 1.251 0 2.272-1.04 2.272-2.313zm9.175 18.599c-.059.138-.053.234.022.372.083.136.165.21.391.21 1.143 0 3.316-1.715 5.161-3.473-2.571.799-5.151 1.909-5.574 2.891zm10.078-16.618c-.085-.12-.17-.164-.329-.164-.154 0-.239.044-.325.164-.623.866-.278 3.701.325 6.36.605-2.659.952-5.494.329-6.36zm-.329 10.04c-.649 0-1.178.542-1.178 1.204 0 .665.529 1.206 1.178 1.206a1.2 1.2 0 0 0 1.186-1.206 1.2 1.2 0 0 0-1.186-1.204zm9.754 6.578c-.427-.983-3.007-2.093-5.574-2.891 1.848 1.757 4.021 3.472 5.16 3.472.223 0 .309-.073.387-.21.079-.137.085-.234.027-.371z" class="cls-1"/></svg>