<svg xmlns="http://www.w3.org/2000/svg" xmlns:xlink="http://www.w3.org/1999/xlink" preserveAspectRatio="xMidYMid" width="65" height="59" viewBox="0 0 65 59">
  <defs>
    <style>
      .cls-1 {
        fill: #00aeef;
        fill-rule: evenodd;
      }
    </style>
  </defs>
  <path d="M64.733,39.530 C64.366,40.178 63.752,40.535 63.000,40.535 C60.690,40.535 56.722,36.807 55.075,35.078 L55.000,56.000 L59.000,56.000 L58.894,58.203 C58.894,58.203 59.427,59.000 59.000,59.000 L6.812,58.995 C6.384,58.995 6.036,58.641 6.036,58.203 C6.036,57.768 6.572,56.000 7.000,56.000 L9.884,56.000 L10.000,53.825 L10.000,35.144 L9.694,35.188 C8.092,36.885 4.370,40.535 2.026,40.535 C1.272,40.535 0.659,40.178 0.291,39.530 C-0.034,38.955 -0.071,38.333 0.189,37.731 C1.138,35.543 6.334,34.005 8.668,33.420 C8.647,33.280 8.627,33.143 8.627,32.996 C8.627,31.829 9.338,30.830 10.340,30.419 C9.673,28.049 8.400,22.742 9.783,20.820 C10.543,19.761 12.179,19.761 12.942,20.820 C14.328,22.742 13.052,28.049 12.384,30.419 C13.386,30.830 14.098,31.829 14.098,32.996 C14.098,33.143 14.075,33.280 14.057,33.420 C16.391,34.008 21.585,35.542 22.534,37.731 C22.795,38.333 22.760,38.955 22.433,39.530 C22.069,40.178 21.451,40.535 20.699,40.535 C20.551,40.535 20.396,40.520 20.238,40.492 C18.169,40.136 14.824,37.624 12.916,35.886 L12.916,56.000 L31.000,56.000 L31.000,26.019 L30.910,23.323 C30.508,23.139 30.142,22.888 29.828,22.581 C27.698,24.854 21.556,31.061 17.929,31.061 C16.906,31.061 16.102,30.599 15.603,29.720 C15.167,28.951 15.120,28.119 15.468,27.321 C16.921,23.956 25.670,21.522 28.778,20.757 C28.694,20.439 28.637,20.111 28.637,19.771 C28.637,17.996 29.815,16.512 31.409,16.044 C30.498,12.868 28.230,4.018 30.352,1.071 C30.666,0.634 31.097,0.349 31.566,0.182 C31.856,0.079 32.157,0.010 32.463,0.010 C32.463,0.010 32.463,0.010 32.463,0.010 C33.265,0.010 34.067,0.364 34.576,1.071 C36.696,4.019 34.431,12.868 33.519,16.044 C35.114,16.515 36.289,17.996 36.289,19.771 C36.289,20.112 36.234,20.439 36.151,20.757 C39.257,21.522 48.005,23.956 49.460,27.318 C49.807,28.120 49.761,28.952 49.325,29.721 C48.825,30.600 48.021,31.061 47.000,31.061 C43.376,31.061 37.231,24.854 35.101,22.582 C34.786,22.889 34.417,23.139 34.020,23.324 L34.000,56.000 L52.005,56.000 L52.108,35.285 L51.994,35.188 C50.388,36.882 46.669,40.535 44.325,40.535 C43.573,40.535 42.956,40.178 42.589,39.530 C42.264,38.955 42.231,38.333 42.490,37.731 C43.438,35.543 48.632,34.005 50.965,33.420 C50.949,33.280 50.926,33.143 50.926,32.996 C50.926,31.829 51.638,30.830 52.640,30.419 C51.971,28.049 50.697,22.742 52.082,20.820 C52.844,19.761 54.481,19.761 55.243,20.820 C56.625,22.742 55.352,28.049 54.682,30.419 C55.687,30.830 56.399,31.829 56.399,32.996 C56.399,33.143 56.375,33.280 56.356,33.420 C58.690,34.005 63.887,35.542 64.835,37.731 C65.094,38.333 65.061,38.955 64.733,39.530 ZM16.889,27.959 C16.742,28.297 16.764,28.597 16.951,28.931 C17.169,29.315 17.461,29.479 17.929,29.479 C20.264,29.479 24.679,25.566 27.515,22.718 C23.096,23.952 17.734,26.004 16.889,27.959 ZM47.000,29.480 C47.466,29.480 47.758,29.316 47.978,28.932 C48.166,28.598 48.185,28.297 48.037,27.956 C47.190,26.004 41.829,23.952 37.415,22.719 C40.248,25.566 44.663,29.480 47.000,29.480 ZM1.612,38.370 C1.552,38.508 1.559,38.604 1.636,38.742 C1.715,38.878 1.800,38.952 2.026,38.952 C3.168,38.952 5.338,37.237 7.186,35.479 C4.619,36.278 2.037,37.388 1.612,38.370 ZM11.690,21.752 C11.603,21.632 11.517,21.588 11.363,21.588 C11.206,21.588 11.121,21.632 11.033,21.752 C10.411,22.618 10.757,25.453 11.363,28.116 C11.967,25.453 12.314,22.618 11.690,21.752 ZM11.363,31.792 C10.710,31.792 10.180,32.334 10.180,32.996 C10.180,33.661 10.710,34.202 11.363,34.202 C12.015,34.202 12.543,33.661 12.543,32.996 C12.543,32.334 12.015,31.792 11.363,31.792 ZM21.086,38.742 C21.165,38.604 21.172,38.508 21.112,38.370 C20.687,37.388 18.107,36.278 15.538,35.479 C17.385,37.237 19.558,38.952 20.699,38.952 C20.923,38.952 21.009,38.879 21.086,38.742 ZM33.323,2.006 C33.107,1.706 32.842,1.572 32.464,1.572 C32.084,1.572 31.821,1.706 31.606,2.006 C30.366,3.728 31.301,9.490 32.464,14.002 C33.625,9.490 34.562,3.728 33.323,2.006 ZM34.736,19.771 C34.736,18.494 33.715,17.455 32.464,17.455 C31.211,17.455 30.191,18.494 30.191,19.771 C30.191,21.044 31.211,22.083 32.464,22.084 C33.715,22.084 34.736,21.044 34.736,19.771 ZM43.911,38.370 C43.852,38.508 43.858,38.604 43.933,38.742 C44.016,38.878 44.098,38.952 44.324,38.952 C45.467,38.952 47.640,37.237 49.485,35.479 C46.914,36.278 44.334,37.388 43.911,38.370 ZM53.989,21.752 C53.904,21.632 53.819,21.588 53.660,21.588 C53.506,21.588 53.421,21.632 53.335,21.752 C52.712,22.618 53.057,25.453 53.660,28.112 C54.265,25.453 54.612,22.618 53.989,21.752 ZM53.660,31.792 C53.011,31.792 52.482,32.334 52.482,32.996 C52.482,33.661 53.011,34.202 53.660,34.202 C54.311,34.202 54.846,33.661 54.846,32.996 C54.846,32.334 54.310,31.792 53.660,31.792 ZM63.414,38.370 C62.987,37.387 60.407,36.277 57.840,35.479 C59.688,37.236 61.861,38.951 63.000,38.951 C63.223,38.951 63.309,38.878 63.387,38.741 C63.466,38.604 63.472,38.507 63.414,38.370 Z" class="cls-1"/>
</svg>
