<svg xmlns="http://www.w3.org/2000/svg" preserveAspectRatio="xMidYMid" width="50" height="40" viewBox="0 0 25 20"><defs><style>.cls-1{fill:#00aeef;fill-rule:evenodd}</style></defs><path d="M21.924 10.776a.831.831 0 0 1-.301.058H.821a.82.82 0 0 1-.829-.812.82.82 0 0 1 .829-.811h17.924a3.232 3.232 0 0 1-.503-1.728c0-1.825 1.517-3.309 3.381-3.309 1.864 0 3.38 1.484 3.38 3.309 0 1.724-1.356 3.143-3.079 3.293zm-.301-4.98c-.95 0-1.723.757-1.723 1.687 0 .929.773 1.685 1.723 1.685.949 0 1.722-.756 1.722-1.685 0-.93-.773-1.687-1.722-1.687zm-9.906.818a.851.851 0 0 1-.3.057H.821a.82.82 0 0 1-.828-.811.82.82 0 0 1 .828-.812H8.54a3.235 3.235 0 0 1-.503-1.727c0-1.824 1.517-3.309 3.381-3.309 1.864 0 3.38 1.484 3.38 3.309 0 1.725-1.357 3.144-3.081 3.293zm-.3-4.98c-.95 0-1.722.757-1.722 1.687 0 .929.772 1.685 1.722 1.685s1.723-.756 1.723-1.685c0-.931-.773-1.687-1.723-1.687zM.821 13.373h15.038c1.864 0 3.38 1.485 3.38 3.309s-1.516 3.308-3.38 3.308c-1.864 0-3.381-1.484-3.381-3.308 0-.616.177-1.192.478-1.686H.821a.82.82 0 0 1-.828-.812.82.82 0 0 1 .828-.811zm15.038 4.995c.949 0 1.722-.756 1.722-1.685 0-.93-.773-1.687-1.722-1.687-.95 0-1.723.757-1.723 1.687 0 .929.773 1.685 1.723 1.685z" class="cls-1"/></svg>