<svg xmlns="http://www.w3.org/2000/svg" xmlns:xlink="http://www.w3.org/1999/xlink" preserveAspectRatio="xMidYMid" width="50" height="40" viewBox="0 0 25 20">
  <defs>
    <style>
      .cls-1 {
        fill: #00aeef;
        fill-rule: evenodd;
      }
    </style>
  </defs>
  <path d="M21.924,10.776 C21.831,10.812 21.730,10.834 21.623,10.834 L0.821,10.834 C0.363,10.834 -0.008,10.470 -0.008,10.022 C-0.008,9.574 0.363,9.211 0.821,9.211 L18.745,9.211 C18.428,8.708 18.242,8.116 18.242,7.483 C18.242,5.658 19.759,4.174 21.623,4.174 C23.487,4.174 25.003,5.658 25.003,7.483 C25.003,9.207 23.647,10.626 21.924,10.776 ZM21.623,5.796 C20.673,5.796 19.900,6.553 19.900,7.483 C19.900,8.412 20.673,9.168 21.623,9.168 C22.572,9.168 23.345,8.412 23.345,7.483 C23.345,6.553 22.572,5.796 21.623,5.796 ZM11.717,6.614 C11.624,6.649 11.523,6.671 11.417,6.671 L0.821,6.671 C0.363,6.671 -0.007,6.307 -0.007,5.860 C-0.007,5.412 0.364,5.048 0.821,5.048 L8.540,5.048 C8.224,4.545 8.037,3.955 8.037,3.321 C8.037,1.497 9.554,0.012 11.418,0.012 C13.282,0.012 14.798,1.496 14.798,3.321 C14.798,5.046 13.441,6.465 11.717,6.614 ZM11.417,1.634 C10.467,1.634 9.695,2.391 9.695,3.321 C9.695,4.250 10.467,5.006 11.417,5.006 C12.367,5.006 13.140,4.250 13.140,3.321 C13.140,2.390 12.367,1.634 11.417,1.634 ZM0.821,13.373 L15.859,13.373 C17.723,13.373 19.239,14.858 19.239,16.682 C19.239,18.506 17.723,19.990 15.859,19.990 C13.995,19.990 12.478,18.506 12.478,16.682 C12.478,16.066 12.655,15.490 12.956,14.996 L0.821,14.996 C0.364,14.996 -0.007,14.633 -0.007,14.184 C-0.007,13.737 0.364,13.373 0.821,13.373 ZM15.859,18.368 C16.808,18.368 17.581,17.612 17.581,16.683 C17.581,15.753 16.808,14.996 15.859,14.996 C14.909,14.996 14.136,15.753 14.136,16.683 C14.136,17.612 14.909,18.368 15.859,18.368 Z" class="cls-1"/>
</svg>
